# xmcd
#
# Track frame offsets:
# 150
# 16227
# 38877
# 67220
# 89262
# 109465
# 140990
# 175155
# 235170
# 261900
# 283672
# 305305
#
# Disc length: 4413 seconds
#
#
# Revision: 0
# Processed by: cddbd v1.4PL0 Copyright (c) Steve Scherf et al.
# Submitted via: FreeRIP 2.30 
#
DISCID=b1113b0c
DTITLE=Groundhogs - BBC On Air 1970-1972
DYEAR=1900
DGENRE=Rock
TTITLE0=Garden
TTITLE1=Eccentric Man
TTITLE2=Split Part 1
TTITLE3=Split Part 2
TTITLE4=Mistreated
TTITLE5=I Love You Miss Ogyny
TTITLE6=You Had A Lesson
TTITLE7=Earth Shanty
TTITLE8=3744 James Road
TTITLE9=Sad Is The Hunter
TTITLE10=Split part 4
TTITLE11=Cherry Red
EXTD=
EXTT0=
EXTT1=
EXTT2=
EXTT3=
EXTT4=
EXTT5=
EXTT6=
EXTT7=
EXTT8=
EXTT9=
EXTT10=
EXTT11=
PLAYORDER=
